<?xml version="1.0" standalone="no"?><!DOCTYPE svg PUBLIC "-//W3C//DTD SVG 1.1//EN" "http://www.w3.org/Graphics/SVG/1.1/DTD/svg11.dtd"><svg t="1788245536730" class="icon" viewBox="0 0 1194 1024" version="1.1" xmlns="http://www.w3.org/2000/svg" p-id="6323" xmlns:xlink="http://www.w3.org/1999/xlink" width="233.203125" height="200"><path d="M614.65445133 630.14511811a25.20254573 25.20254573 0 0 0-1.03271106-33.90368671l-125.57327703-133.54932241-40.12192543-40.07798002c-2.06542214 1.03271107-3.09813321 3.07616089-5.16355611 5.14158302L182.36597345 742.11736968V205.87663023c2.06542214-14.39203801 13.38129924-23.64249298 26.76259849-23.64249297h355.07684252L621.86145649 116.4921875H174.12625645C142.22207493 116.4921875 116.4921875 142.17812952 116.4921875 175.04910518v673.8989338C116.4921875 880.8082751 142.22207493 907.50495589 174.12625645 907.50495589h199.6867792l240.84141569-277.35983778zM687.77918706 347.20424488a98.87659624 98.87659624 0 1 0 197.75319248-1e-8 98.87659624 98.87659624 0 0 0-197.75319248 0z" fill="#CCCCCC" p-id="6324"></path><path d="M980.27813074 116.4921875h-197.22585002c-1.05468338 2.06542214-2.10936754 5.14158303-4.21873505 6.17429409L726.0993612 182.40991808h218.3195238c14.76557196 0 26.36709223 10.30513836 27.42177638 24.71914943l1.05468338 536.61427263-210.93673782-220.40691902a36.07897118 36.07897118 0 0 0-27.42177637-12.37056049c-10.54683689 0-17.92962287 5.16355534-27.42177562 11.33784942l-9.49215352 7.20700516 62.22633797 64.88502028c9.49215352 9.27242729 9.49215352 23.6864376 1.05468338 33.99157595L511.99857169 907.50495589h468.27955905A58.49099997 58.49099997 0 0 0 1039.3404178 848.79423047V174.17020184C1039.3404178 142.24404802 1012.97332557 116.4921875 980.27813074 116.4921875z" fill="#CCCCCC" p-id="6325"></path></svg>